<svg version="1.1" xmlns="http://www.w3.org/2000/svg" xmlns:xlink="http://www.w3.org/1999/xlink" width="30" height="4" viewBox="0 0 30 4"><g id="traction" opacity="0.369"><path id="Rectangle-929" d="M-0.000,0.187 L1.000,0.187 L1.000,3.844 L-0.000,3.844 L-0.000,0.187 z" fill="#171A1B" /><path id="Rectangle-929-co" d="M3.187,0.187 L4.188,0.187 L4.188,3.844 L3.187,3.844 L3.187,0.187 z" fill="#171A1B" /><path id="Rectangle-929-co" d="M6.375,0.187 L7.375,0.187 L7.375,3.844 L6.375,3.844 L6.375,0.187 z" fill="#171A1B" /><path id="Rectangle-929-co" d="M9.594,0.187 L10.594,0.187 L10.594,3.844 L9.594,3.844 L9.594,0.187 z" fill="#171A1B" /><path id="Rectangle-929-co" d="M12.781,0.187 L13.781,0.187 L13.781,3.844 L12.781,3.844 L12.781,0.187 z" fill="#171A1B" /><path id="Rectangle-929-co" d="M16.000,0.187 L16.969,0.187 L16.969,3.844 L16.000,3.844 L16.000,0.187 z" fill="#171A1B" /><path id="Rectangle-929-co" d="M19.187,0.187 L20.188,0.187 L20.188,3.844 L19.187,3.844 L19.187,0.187 z" fill="#171A1B" /><path id="Rectangle-929-co" d="M22.375,0.187 L23.375,0.187 L23.375,3.844 L22.375,3.844 L22.375,0.187 z" fill="#171A1B" /><path id="Rectangle-929-co" d="M25.594,0.187 L26.594,0.187 L26.594,3.844 L25.594,3.844 L25.594,0.187 z" fill="#171A1B" /><path id="Rectangle-929-co" d="M28.781,0.187 L29.781,0.187 L29.781,3.906 L28.781,3.906 L28.781,0.187 z" fill="#171A1B" /></g></svg>