<svg version="1.1" xmlns="http://www.w3.org/2000/svg" xmlns:xlink="http://www.w3.org/1999/xlink" width="66" height="66" viewBox="0 0 66 66">
<g id="nav---arrow">
<path id="border" d="M32.875,-0.469 C51.100,-0.469 65.875,14.306 65.875,32.531 C65.875,50.757 51.100,65.531 32.875,65.531 C14.650,65.531 -0.125,50.757 -0.125,32.531 C-0.125,14.306 14.650,-0.469 32.875,-0.469 z" fill="#FFFFFF" opacity="0.702" />
<filter id="shadow">
      <feDropShadow dx="0.2" dy="0.4" stdDeviation="0.2"/>
    </filter>
<path id="inner" d="M32.812,6.469 C47.724,6.469 59.813,18.557 59.813,33.469 C59.813,48.380 47.724,60.469 32.812,60.469 C17.901,60.469 5.812,48.380 5.812,33.469 C5.812,18.557 17.901,6.469 32.812,6.469 z" fill="#171A1B" />
<path id="arrow" d="M41.518,35.295 C41.518,35.295 31.694,45.119 31.694,45.119 C30.712,46.102 29.120,46.102 28.138,45.119 C27.155,44.137 27.155,42.545 28.138,41.563 C28.138,41.563 36.183,33.517 36.183,33.517 C36.183,33.517 28.138,25.471 28.138,25.471 C27.155,24.489 27.155,22.897 28.138,21.914 C29.120,20.932 30.712,20.932 31.694,21.914 C31.694,21.914 41.518,31.738 41.518,31.738 C42.501,32.721 42.501,34.313 41.518,35.295 z" fill="#FFFFFF" />
</g>
</svg>
